<svg xmlns="http://www.w3.org/2000/svg" version="1.1" xmlns:xlink="http://www.w3.org/1999/xlink" xmlns:svgjs="http://svgjs.dev/svgjs" width="1000" height="123" viewBox="0 0 1000 123"><g transform="matrix(1,0,0,1,-0.6060606060606233,-0.09446395882800118)"><svg viewBox="0 0 396 49" data-background-color="#ffffff" preserveAspectRatio="xMidYMid meet" height="123" width="1000" xmlns="http://www.w3.org/2000/svg" xmlns:xlink="http://www.w3.org/1999/xlink"><g id="tight-bounds" transform="matrix(1,0,0,1,0.2400000000000091,0.037631983598146235)"><svg viewBox="0 0 395.52 48.92473603280369" height="48.92473603280369" width="395.52"><g><svg viewBox="0 0 395.52 48.92473603280369" height="48.92473603280369" width="395.52"><g><svg viewBox="0 0 395.52 48.92473603280369" height="48.92473603280369" width="395.52"><g><svg viewBox="0 0 395.52 48.92473603280369" height="48.92473603280369" width="395.52"><g id="textblocktransform"><svg viewBox="0 0 395.52 48.92473603280369" height="48.92473603280369" width="395.52" id="textblock"><g><svg viewBox="0 0 395.52 48.92473603280369" height="48.92473603280369" width="395.52"><g transform="matrix(1,0,0,1,0,0)"><svg width="395.52" viewBox="4.5 -35.6 291.17 36.2" height="48.92473603280369" data-palette-color="#80b578"><g class="wordmark-text-0" data-fill-palette-color="primary" id="text-0"><path d="M8.65 0L4.5 0 4.5-32.8 23.4-32.8 23.4-29.3 8.65-29.3 8.65-18.2 21.15-18.2 21.15-14.7 8.65-14.7 8.65 0ZM32.9 0L28.8 0 28.8-24.3 32.9-24.3 32.9 0ZM30.9-29.3L30.9-29.3Q29.7-29.3 28.87-30.05 28.05-30.8 28.05-31.95L28.05-31.95Q28.05-33.15 28.87-33.88 29.7-34.6 30.9-34.6L30.9-34.6Q32.1-34.6 32.92-33.88 33.75-33.15 33.75-31.95L33.75-31.95Q33.75-30.8 32.92-30.05 32.1-29.3 30.9-29.3ZM50.7 0.6L50.7 0.6Q48.3 0.6 46.2-0.25 44.1-1.1 42.57-2.73 41.05-4.35 40.17-6.73 39.3-9.1 39.3-12.1L39.3-12.1Q39.3-15.15 40.25-17.53 41.2-19.9 42.8-21.55 44.4-23.2 46.52-24.05 48.65-24.9 51-24.9L51-24.9Q53.4-24.9 55.1-24.05 56.8-23.2 58.1-22.05L58.1-22.05 56-19.35Q54.95-20.3 53.77-20.9 52.6-21.5 51.15-21.5L51.15-21.5Q49.5-21.5 48.1-20.83 46.7-20.15 45.7-18.9 44.7-17.65 44.12-15.93 43.55-14.2 43.55-12.1L43.55-12.1Q43.55-10 44.1-8.3 44.65-6.6 45.62-5.38 46.6-4.15 48-3.48 49.4-2.8 51.05-2.8L51.05-2.8Q52.75-2.8 54.17-3.53 55.6-4.25 56.75-5.25L56.75-5.25 58.55-2.5Q56.9-1.05 54.9-0.23 52.9 0.6 50.7 0.6ZM71.54 0.6L71.54 0.6Q69.59 0.6 68.27 0 66.94-0.6 66.12-1.65 65.29-2.7 64.94-4.2 64.59-5.7 64.59-7.5L64.59-7.5 64.59-20.95 60.99-20.95 60.99-24.05 64.79-24.3 65.29-31.1 68.74-31.1 68.74-24.3 75.29-24.3 75.29-20.95 68.74-20.95 68.74-7.45Q68.74-5.2 69.57-3.98 70.39-2.75 72.49-2.75L72.49-2.75Q73.14-2.75 73.89-2.95 74.64-3.15 75.24-3.4L75.24-3.4 76.04-0.3Q75.04 0.05 73.87 0.33 72.69 0.6 71.54 0.6ZM84.89 0L80.79 0 80.79-24.3 84.89-24.3 84.89 0ZM82.89-29.3L82.89-29.3Q81.69-29.3 80.87-30.05 80.04-30.8 80.04-31.95L80.04-31.95Q80.04-33.15 80.87-33.88 81.69-34.6 82.89-34.6L82.89-34.6Q84.09-34.6 84.92-33.88 85.74-33.15 85.74-31.95L85.74-31.95Q85.74-30.8 84.92-30.05 84.09-29.3 82.89-29.3ZM102.54 0.6L102.54 0.6Q100.29 0.6 98.26-0.25 96.24-1.1 94.69-2.73 93.14-4.35 92.21-6.73 91.29-9.1 91.29-12.1L91.29-12.1Q91.29-15.15 92.21-17.53 93.14-19.9 94.69-21.55 96.24-23.2 98.26-24.05 100.29-24.9 102.54-24.9L102.54-24.9Q104.79-24.9 106.81-24.05 108.84-23.2 110.39-21.55 111.94-19.9 112.86-17.53 113.79-15.15 113.79-12.1L113.79-12.1Q113.79-9.1 112.86-6.73 111.94-4.35 110.39-2.73 108.84-1.1 106.81-0.25 104.79 0.6 102.54 0.6ZM102.54-2.8L102.54-2.8Q104.09-2.8 105.39-3.48 106.69-4.15 107.61-5.38 108.54-6.6 109.04-8.3 109.54-10 109.54-12.1L109.54-12.1Q109.54-14.2 109.04-15.93 108.54-17.65 107.61-18.9 106.69-20.15 105.39-20.83 104.09-21.5 102.54-21.5L102.54-21.5Q100.99-21.5 99.69-20.83 98.39-20.15 97.46-18.9 96.54-17.65 96.04-15.93 95.54-14.2 95.54-12.1L95.54-12.1Q95.54-10 96.04-8.3 96.54-6.6 97.46-5.38 98.39-4.15 99.69-3.48 100.99-2.8 102.54-2.8ZM124.29 0L120.19 0 120.19-24.3 123.59-24.3 123.94-20.8 124.09-20.8Q125.84-22.55 127.76-23.73 129.69-24.9 132.24-24.9L132.24-24.9Q136.09-24.9 137.86-22.5 139.64-20.1 139.64-15.4L139.64-15.4 139.64 0 135.54 0 135.54-14.85Q135.54-18.3 134.44-19.83 133.34-21.35 130.94-21.35L130.94-21.35Q129.03-21.35 127.59-20.4 126.14-19.45 124.29-17.6L124.29-17.6 124.29 0ZM153.13 0.6L153.13 0.6Q150.08 0.6 148.06-1.2 146.03-3 146.03-6.3L146.03-6.3Q146.03-10.3 149.58-12.43 153.13-14.55 160.93-15.4L160.93-15.4Q160.93-16.55 160.71-17.65 160.48-18.75 159.93-19.6 159.38-20.45 158.41-20.98 157.43-21.5 155.93-21.5L155.93-21.5Q153.83-21.5 151.98-20.7 150.13-19.9 148.68-18.9L148.68-18.9 147.08-21.75Q148.78-22.85 151.23-23.88 153.68-24.9 156.63-24.9L156.63-24.9Q161.08-24.9 163.08-22.18 165.08-19.45 165.08-14.9L165.08-14.9 165.08 0 161.68 0 161.33-2.9 161.18-2.9Q159.43-1.45 157.43-0.43 155.43 0.6 153.13 0.6ZM154.33-2.7L154.33-2.7Q156.08-2.7 157.63-3.53 159.18-4.35 160.93-5.95L160.93-5.95 160.93-12.7Q157.88-12.3 155.81-11.75 153.73-11.2 152.46-10.45 151.18-9.7 150.61-8.72 150.03-7.75 150.03-6.6L150.03-6.6Q150.03-4.5 151.28-3.6 152.53-2.7 154.33-2.7ZM177.08 0.6L177.08 0.6Q174.73 0.6 173.73-0.8 172.73-2.2 172.73-4.9L172.73-4.9 172.73-35.6 176.83-35.6 176.83-4.6Q176.83-3.6 177.18-3.2 177.53-2.8 177.98-2.8L177.98-2.8Q178.18-2.8 178.35-2.8 178.53-2.8 178.88-2.9L178.88-2.9 179.43 0.2Q179.03 0.4 178.48 0.5 177.93 0.6 177.08 0.6Z" fill="#80b578" data-fill-palette-color="primary"></path><path d="M204.38 0L193.93 0 193.93-32.8 203.68-32.8Q206.18-32.8 208.25-32.35 210.33-31.9 211.8-30.95 213.28-30 214.1-28.48 214.93-26.95 214.93-24.8L214.93-24.8Q214.93-22.35 213.7-20.38 212.48-18.4 210.13-17.65L210.13-17.65 210.13-17.45Q213.13-16.9 214.98-14.95 216.83-13 216.83-9.6L216.83-9.6Q216.83-7.2 215.93-5.4 215.03-3.6 213.38-2.4 211.73-1.2 209.43-0.6 207.13 0 204.38 0L204.38 0ZM198.08-29.5L198.08-18.85 202.93-18.85Q207.13-18.85 208.98-20.3 210.83-21.75 210.83-24.25L210.83-24.25Q210.83-27.1 208.9-28.3 206.98-29.5 203.13-29.5L203.13-29.5 198.08-29.5ZM198.08-15.65L198.08-3.3 203.78-3.3Q208.03-3.3 210.38-4.88 212.73-6.45 212.73-9.75L212.73-9.75Q212.73-12.8 210.43-14.23 208.13-15.65 203.78-15.65L203.78-15.65 198.08-15.65ZM228.53 0.6L228.53 0.6Q225.48 0.6 223.45-1.2 221.43-3 221.43-6.3L221.43-6.3Q221.43-10.3 224.98-12.43 228.53-14.55 236.33-15.4L236.33-15.4Q236.33-16.55 236.1-17.65 235.88-18.75 235.33-19.6 234.78-20.45 233.8-20.98 232.83-21.5 231.33-21.5L231.33-21.5Q229.23-21.5 227.38-20.7 225.53-19.9 224.08-18.9L224.08-18.9 222.48-21.75Q224.18-22.85 226.63-23.88 229.08-24.9 232.03-24.9L232.03-24.9Q236.48-24.9 238.48-22.18 240.48-19.45 240.48-14.9L240.48-14.9 240.48 0 237.08 0 236.73-2.9 236.58-2.9Q234.83-1.45 232.83-0.43 230.83 0.6 228.53 0.6ZM229.73-2.7L229.73-2.7Q231.48-2.7 233.03-3.53 234.58-4.35 236.33-5.95L236.33-5.95 236.33-12.7Q233.28-12.3 231.2-11.75 229.13-11.2 227.85-10.45 226.58-9.7 226-8.72 225.43-7.75 225.43-6.6L225.43-6.6Q225.43-4.5 226.68-3.6 227.93-2.7 229.73-2.7ZM252.22 0L248.12 0 248.12-24.3 251.52-24.3 251.87-20.8 252.02-20.8Q253.77-22.55 255.7-23.73 257.62-24.9 260.17-24.9L260.17-24.9Q264.02-24.9 265.8-22.5 267.57-20.1 267.57-15.4L267.57-15.4 267.57 0 263.47 0 263.47-14.85Q263.47-18.3 262.37-19.83 261.27-21.35 258.87-21.35L258.87-21.35Q256.97-21.35 255.52-20.4 254.07-19.45 252.22-17.6L252.22-17.6 252.22 0ZM279.52 0L275.47 0 275.47-35.6 279.52-35.6 279.52-11.5 279.67-11.5 290.02-24.3 294.57-24.3 286.42-14.55 295.67 0 291.17 0 284.07-11.7 279.52-6.4 279.52 0Z" fill="#096a2e" data-fill-palette-color="secondary"></path></g></svg></g></svg></g></svg></g></svg></g></svg></g></svg></g><defs></defs></svg><rect width="395.52" height="48.92473603280369" fill="none" stroke="none" visibility="hidden"></rect></g></svg></g></svg>